<svg width="512" height="512" viewBox="0 0 135.467 135.467" xml:space="preserve" xmlns="http://www.w3.org/2000/svg">
  <rect width="135.467" height="135.467" fill="white"/>
  <g style="display:inline" transform="translate(-87.434 -193.431)scale(3.23272)"/>
  <g style="display:inline">
    <path style="display:inline;fill:#000;stroke-width:.206012" d="m90.793 48.847-6.911 1.103-12.71-12.049a10.57 10.57 0 0 0-8.4-2.31l-19.795 3.161c-3.133.5-5.565 2.64-6.557 5.575l-4.066 12.04q-.325.709-.153 1.777c.318 1.992 2.3 3.428 4.294 3.11 1.566-.25 2.59-1.143 3.1-2.539l3.653-10.952 8.544-1.364-3.934 17.423 1.348 21.25-16.944 2.706c-2.707.433-4.57 2.484-5.203 4.922l-1.078 5.137 29.052-4.64c2.133-.34 3.737-2.201 3.537-4.361l-.94-18.689 9.135 13.13 11.713 16.837c1.151 1.715 3.35 2.678 5.628 2.314l7.548-1.205-25.57-36.662 3.59-15.906 6.813 6.068c1.718 1.625 4.347 2.518 6.908 2.109l8.401-1.342s.479.075 1.381-.916c1.162-1.277 1.048-3.926-.37-4.96-1.394-1.017-2.014-.767-2.014-.767"/>
    <path style="fill:#000;stroke:#000;stroke-width:.264759;stroke-opacity:1" d="M69.86 16.229c-5.674.906-9.67 6.425-8.764 12.098s6.393 9.49 12.067 8.583a10.36 10.36 0 0 0 8.613-11.886c-.906-5.673-6.242-9.701-11.916-8.795z"/>
    <path style="fill:#000;stroke-width:.264583" d="M18.34 115.092c92.69-13.661 92.517-13.661 92.517-13.661"/>
    <path style="fill:#000;stroke:#000;stroke-width:11.9062;stroke-linecap:round;stroke-linejoin:round;stroke-dasharray:none;stroke-opacity:1" d="m25.065 114.007 79.972-11.494"/>
    <path style="fill:none;stroke:none;stroke-width:.265;stroke-dasharray:none;stroke-paint-order:stroke fill markers" d="M85.255 191.26a16.255 16.255 0 0 1-11.784 15.63 16.255 16.255 0 0 1-18.267-7.031 16.255 16.255 0 0 1 1.734-19.497L69 191.261z"/>
    <path style="fill:none;stroke:#000;stroke-width:5;stroke-linecap:round;stroke-dasharray:none;stroke-paint-order:stroke fill markers" d="M96.158 104.544s-4.36-6.83-1.757-18.774c1.486-6.817 6.29-16.934 12.825-24.286"/>
    <path style="display:inline;fill:none;stroke:#000;stroke-width:7.5;stroke-linecap:round;stroke-dasharray:none;stroke-paint-order:stroke fill markers" d="M86.128 65.98c20.233-3.631 21.444-4.323 21.444-4.323l6.744-10.03"/>
    <path style="fill:none;stroke:#000;stroke-width:7;stroke-linecap:round;stroke-dasharray:none;stroke-paint-order:stroke fill markers" d="m75.06 107.31 29.226 9.166"/>
  </g>
</svg>
